<svg id="erTcItgM1PV1" xmlns="http://www.w3.org/2000/svg" xmlns:xlink="http://www.w3.org/1999/xlink" viewBox="0 0 1000 1000" shape-rendering="geometricPrecision" text-rendering="geometricPrecision"><defs><linearGradient id="erTcItgM1PV5-fill" x1="0.089228" y1="0.070187" x2="0.810819" y2="0.97568" spreadMethod="pad" gradientUnits="objectBoundingBox" gradientTransform="translate(0 0)"><stop id="erTcItgM1PV5-fill-0" offset="0%" stop-color="#a100b8"/><stop id="erTcItgM1PV5-fill-1" offset="18%" stop-color="#5e076e"/><stop id="erTcItgM1PV5-fill-2" offset="43.7344%" stop-color="#4d1060"/><stop id="erTcItgM1PV5-fill-3" offset="72.0458%" stop-color="#380c45"/></linearGradient><linearGradient id="erTcItgM1PV6-fill" x1="0.023276" y1="0.123661" x2="0.849614" y2="0.932901" spreadMethod="pad" gradientUnits="objectBoundingBox" gradientTransform="translate(0 0)"><stop id="erTcItgM1PV6-fill-0" offset="0%" stop-color="#da05ef"/><stop id="erTcItgM1PV6-fill-1" offset="100%" stop-color="#ff5072"/></linearGradient></defs><g transform="matrix(1.468569 0.100792-.087572 1.275948-178.606094-293.283602)"><g><g><path d="M-569.52454,-74.595055c-91.129483-76.2858-94.191165-193.712119-6.506969-271.397167c87.329858-77.371116,394.305985,21.947163,527.216613,21.947163c266.053359,0,240.92652,770.574291,44.131786,805.460365-252.471854-150.191384-299.165328-88.022078-390.746551-205.384847-134.071852-171.815176-9.740787-107.097767-174.094879-350.625514Z" transform="translate(778.416595 446.67638)" fill="url(#erTcItgM1PV5-fill)"/></g></g><path d="M-569.52454,-74.595055c-91.129483-76.2858-94.191165-193.712119-6.506969-271.397167c87.329858-77.371116,394.305985,21.947163,527.216613,21.947163c266.053359,0,284.176606,799.472335,87.381872,834.358409-252.471854-150.191384-342.415414-116.920122-433.996637-234.282891-134.071852-171.815176-9.740787-107.097767-174.094879-350.625514Z" transform="matrix(.950143 0 0 0.952773 780.276671 441.878904)" fill="url(#erTcItgM1PV6-fill)"/></g></svg>
